<svg xmlns="http://www.w3.org/2000/svg" width="768" height="768" viewBox="0 0 768 768" version="1.1"><path d="M 647.500 168.594 C 615.600 186.511, 589.337 201.332, 589.138 201.530 C 588.939 201.728, 590.347 203.828, 592.268 206.195 C 594.188 208.563, 596.787 212.525, 598.044 215 C 599.301 217.475, 600.823 221.150, 601.427 223.168 L 602.525 226.835 640.379 205.535 L 678.233 184.235 689.691 164.368 C 695.993 153.440, 702.260 142.588, 703.617 140.250 C 704.974 137.912, 705.953 136.004, 705.792 136.009 C 705.631 136.014, 679.400 150.678, 647.500 168.594 M 543.500 205.392 C 541.300 206.085, 538.423 207.230, 537.106 207.938 C 535.789 208.646, 532.711 211.069, 530.266 213.322 C 527.821 215.576, 524.777 219.481, 523.500 222 C 522.223 224.519, 520.731 229.037, 520.185 232.040 C 519.577 235.375, 519.530 239.611, 520.062 242.922 C 520.542 245.905, 522.087 250.702, 523.497 253.583 C 524.906 256.464, 527.905 260.488, 530.160 262.525 C 532.415 264.563, 536.703 267.348, 539.689 268.715 C 542.674 270.082, 547.711 271.435, 550.881 271.723 C 554.728 272.072, 558.570 271.685, 562.441 270.560 C 565.629 269.633, 569.891 267.831, 571.911 266.556 C 573.932 265.281, 577.095 262.517, 578.941 260.414 C 580.787 258.312, 583.424 254.132, 584.800 251.126 C 586.676 247.029, 587.321 243.890, 587.381 238.581 C 587.431 234.069, 586.779 229.522, 585.583 226.049 C 584.212 222.068, 582.059 218.931, 577.603 214.421 C 573.069 209.832, 570.012 207.699, 565.712 206.122 C 561.992 204.758, 557.706 204.024, 553.712 204.067 C 550.296 204.104, 545.700 204.700, 543.500 205.392 M 308.785 258.977 C 273.037 259.448, 268.898 259.671, 267.356 261.214 C 265.956 262.616, 265.827 263.531, 266.654 266.224 C 267.210 268.036, 278.541 288.336, 291.833 311.335 C 305.125 334.333, 316 353.517, 316 353.967 C 316 354.416, 295.863 366.088, 271.250 379.905 C 246.637 393.721, 225.920 405.395, 225.211 405.846 C 224.239 406.464, 225.445 409.351, 230.111 417.583 C 233.514 423.587, 236.837 429.089, 237.493 429.808 C 238.458 430.865, 247.295 426.279, 283.531 405.915 C 308.195 392.055, 329.078 380.537, 329.938 380.320 C 331.088 380.030, 338.222 391.592, 357 424.185 C 371.025 448.528, 383.485 469.582, 384.689 470.972 C 386.445 472.999, 387.226 473.288, 388.629 472.429 C 389.592 471.840, 394.397 464.415, 399.307 455.929 C 404.217 447.443, 431.165 400.736, 459.191 352.135 C 508.168 267.202, 510.101 263.658, 508.952 260.885 L 507.757 258 428.129 258.227 C 384.333 258.352, 330.628 258.690, 308.785 258.977" stroke="none" fill="#aeecef" fill-rule="evenodd"/><path d="M 51 87.013 C 47.425 87.446, 42.614 88.558, 40.309 89.485 C 38.005 90.411, 35.417 92.241, 34.559 93.550 C 33.620 94.984, 33 98.137, 33 101.485 C 33 105.036, 33.851 109.106, 35.359 112.770 C 36.657 115.921, 109.819 243.375, 197.941 396 C 295.440 564.866, 359.599 674.987, 361.831 677.299 C 363.849 679.388, 367.975 682.313, 371 683.799 C 375.865 686.188, 377.657 686.500, 386.521 686.500 C 395.770 686.500, 397.042 686.254, 403.031 683.306 C 406.599 681.549, 410.725 678.849, 412.198 677.306 C 413.671 675.763, 455.683 603.850, 505.556 517.500 C 555.430 431.150, 627.495 306.340, 665.700 240.144 C 703.905 173.948, 735.802 117.979, 736.582 115.768 C 737.362 113.557, 738 109.541, 738 106.842 C 738 104.144, 737.392 100.481, 736.649 98.702 C 735.906 96.924, 733.662 94.032, 731.662 92.276 C 729.662 90.521, 726.108 88.503, 723.763 87.792 C 720.486 86.799, 705.858 86.500, 660.500 86.500 C 614.870 86.500, 600.524 86.795, 597.193 87.804 C 594.825 88.521, 591.048 90.768, 588.802 92.798 C 586.555 94.828, 583.573 98.291, 582.175 100.494 C 580.778 102.697, 568.232 124.300, 554.295 148.500 C 535.067 181.888, 528.057 193.221, 525.228 195.490 C 523.178 197.135, 519.320 200.665, 516.656 203.335 C 513.788 206.208, 510.428 211.108, 508.421 215.344 C 506.556 219.280, 504.574 224.924, 504.015 227.886 C 503.457 230.849, 503 235.237, 503 237.636 L 503 242 388.230 242 L 273.460 242 232.480 170.923 C 209.941 131.831, 189.807 97.893, 187.739 95.507 C 185.670 93.120, 181.845 90.117, 179.239 88.834 L 174.500 86.500 116 86.363 C 83.825 86.287, 54.575 86.580, 51 87.013 M 51.337 104.564 C 51.007 105.424, 51.186 107.111, 51.734 108.314 C 52.283 109.516, 88.831 173.050, 132.952 249.500 C 177.074 325.950, 213.932 389.718, 214.861 391.207 L 216.548 393.914 255.024 372.345 C 276.186 360.482, 293.845 350.459, 294.267 350.071 C 294.689 349.683, 285.332 332.572, 273.474 312.047 C 261.616 291.522, 251.212 273.102, 250.355 271.114 C 249.499 269.126, 248.746 265.230, 248.684 262.454 C 248.597 258.613, 249.228 256.286, 251.327 252.704 C 252.844 250.117, 254.568 248, 255.159 248 C 255.750 248, 256.021 247.190, 255.762 246.199 C 255.503 245.209, 237.660 213.821, 216.110 176.449 C 194.560 139.077, 175.587 107.263, 173.948 105.750 L 170.968 103 111.453 103 C 58.394 103, 51.872 103.170, 51.337 104.564 M 602.500 103.945 C 601.400 104.396, 599.600 105.755, 598.500 106.967 C 597.400 108.179, 586.312 126.794, 573.859 148.335 L 551.219 187.500 557.859 188.202 C 561.512 188.588, 566.469 189.601, 568.876 190.452 C 571.282 191.303, 573.897 192, 574.686 192 C 575.476 192, 608.741 173.690, 648.610 151.311 C 721.038 110.656, 721.098 110.620, 720.799 107.600 C 720.577 105.356, 719.857 104.401, 718 103.889 C 716.625 103.510, 690.525 103.183, 660 103.163 C 629.475 103.143, 603.600 103.495, 602.500 103.945 M 646.336 168.799 L 588.172 201.500 590.597 204.500 C 591.932 206.150, 594.366 209.750, 596.008 212.500 C 597.650 215.250, 599.750 219.525, 600.674 222 C 601.599 224.475, 602.434 226.622, 602.531 226.770 C 602.628 226.919, 619.744 217.469, 640.567 205.770 L 678.426 184.500 692.213 160.648 C 699.796 147.529, 706 136.616, 706 136.398 C 706 136.179, 705.663 136.022, 705.250 136.049 C 704.837 136.076, 678.326 150.814, 646.336 168.799 M 547.732 204.065 C 545.109 204.491, 540.846 205.865, 538.258 207.117 C 535.670 208.370, 531.592 211.355, 529.196 213.751 C 526.801 216.147, 523.738 220.514, 522.392 223.456 C 521.039 226.411, 519.693 231.644, 519.384 235.152 C 518.964 239.931, 519.318 243.051, 520.816 247.776 C 521.911 251.228, 524.313 256.023, 526.153 258.431 C 527.994 260.839, 531.525 264.193, 534 265.885 C 536.475 267.576, 540.676 269.700, 543.337 270.603 C 546.808 271.783, 550.336 272.117, 555.837 271.787 C 561.545 271.445, 564.848 270.639, 568.784 268.630 C 571.690 267.146, 575.788 264.212, 577.890 262.110 C 579.992 260.008, 583.014 255.636, 584.606 252.394 C 587.109 247.297, 587.500 245.351, 587.500 238 C 587.500 230.777, 587.078 228.599, 584.693 223.500 C 583.008 219.901, 579.883 215.619, 576.881 212.799 C 573.985 210.078, 569.690 207.294, 566.688 206.189 C 563.835 205.140, 559.475 204.058, 557 203.786 C 554.525 203.514, 550.354 203.639, 547.732 204.065 M 633.531 226.008 L 603.561 242.928 602.298 248.489 C 601.603 251.547, 599.852 256.551, 598.406 259.608 C 596.959 262.665, 593.052 268.079, 589.722 271.638 C 586.392 275.198, 581.793 279.209, 579.504 280.551 C 577.214 281.893, 572.676 283.959, 569.420 285.143 C 564.841 286.807, 561.234 287.294, 553.500 287.294 C 545.766 287.294, 542.159 286.807, 537.581 285.143 C 534.325 283.959, 529.461 281.579, 526.772 279.854 C 524.007 278.079, 521.532 277.104, 521.074 277.608 C 520.629 278.099, 494.504 323.275, 463.019 378 C 431.534 432.725, 404.552 479.057, 403.058 480.961 C 401.565 482.865, 398.395 485.452, 396.014 486.711 C 393.502 488.039, 389.968 488.991, 387.593 488.978 C 385.342 488.966, 381.696 488.137, 379.491 487.135 C 377.287 486.133, 374.137 483.774, 372.491 481.891 C 370.846 480.009, 359.412 460.926, 347.083 439.484 C 334.753 418.043, 324.549 400.346, 324.406 400.157 C 324.264 399.968, 306.575 409.643, 285.098 421.657 C 263.621 433.671, 246.038 443.898, 246.024 444.385 C 246.011 444.872, 274.194 494.147, 308.654 553.885 C 343.114 613.623, 372.251 663.570, 373.404 664.879 C 374.557 666.187, 376.948 667.875, 378.718 668.629 C 380.488 669.383, 384.088 669.990, 386.718 669.978 C 389.348 669.966, 393.300 669.137, 395.500 668.137 C 397.700 667.136, 400.003 665.683, 400.618 664.908 C 401.233 664.134, 459.900 562.700, 530.988 439.500 C 602.076 316.300, 661.122 214.037, 662.201 212.250 C 663.280 210.463, 664.014 209.020, 663.832 209.044 C 663.649 209.068, 650.014 216.702, 633.531 226.008 M 270.263 259.115 C 268.094 259.742, 266.826 260.843, 266.422 262.453 C 266.091 263.775, 266.150 265.896, 266.554 267.169 C 266.957 268.441, 278.292 288.529, 291.743 311.809 C 305.193 335.089, 316.041 354.267, 315.849 354.428 C 315.657 354.588, 295.250 366.072, 270.500 379.946 C 245.750 393.821, 225.089 405.567, 224.588 406.049 C 224.047 406.568, 226.521 411.862, 230.670 419.059 C 234.517 425.733, 237.860 431.262, 238.098 431.347 C 238.336 431.431, 259.203 419.908, 284.470 405.740 C 320.619 385.471, 330.653 380.249, 331.554 381.240 C 332.183 381.933, 343.171 400.725, 355.973 423 C 368.774 445.275, 380.429 465.416, 381.874 467.757 C 383.318 470.099, 385.340 472.283, 386.368 472.612 C 387.504 472.975, 388.952 472.483, 390.066 471.355 C 391.073 470.335, 411.099 436.200, 434.567 395.500 C 458.036 354.800, 484.773 308.411, 493.982 292.413 C 510.135 264.353, 510.677 263.232, 509.331 260.663 L 507.936 258 390.718 258.090 C 321.265 258.144, 272.181 258.561, 270.263 259.115" stroke="none" fill="#040404" fill-rule="evenodd"/><path d="M 51.337 104.564 C 51.007 105.424, 51.186 107.111, 51.734 108.314 C 52.283 109.516, 88.831 173.050, 132.952 249.500 C 177.074 325.950, 213.932 389.718, 214.861 391.207 L 216.548 393.914 255.024 372.345 C 276.186 360.482, 293.845 350.459, 294.267 350.071 C 294.689 349.683, 285.332 332.572, 273.474 312.047 C 261.616 291.522, 251.212 273.102, 250.355 271.114 C 249.499 269.126, 248.746 265.230, 248.684 262.454 C 248.597 258.613, 249.228 256.286, 251.327 252.704 C 252.844 250.117, 254.568 248, 255.159 248 C 255.750 248, 256.021 247.190, 255.762 246.199 C 255.503 245.209, 237.660 213.821, 216.110 176.449 C 194.560 139.077, 175.587 107.263, 173.948 105.750 L 170.968 103 111.453 103 C 58.394 103, 51.872 103.170, 51.337 104.564 M 602.500 103.945 C 601.400 104.396, 599.600 105.755, 598.500 106.967 C 597.400 108.179, 586.312 126.794, 573.859 148.335 L 551.219 187.500 557.859 188.202 C 561.512 188.588, 566.469 189.601, 568.876 190.452 C 571.282 191.303, 573.897 192, 574.686 192 C 575.476 192, 608.741 173.690, 648.610 151.311 C 721.038 110.656, 721.098 110.620, 720.799 107.600 C 720.577 105.356, 719.857 104.401, 718 103.889 C 716.625 103.510, 690.525 103.183, 660 103.163 C 629.475 103.143, 603.600 103.495, 602.500 103.945 M 633.531 226.008 L 603.561 242.928 602.298 248.489 C 601.603 251.547, 599.852 256.551, 598.406 259.608 C 596.959 262.665, 593.052 268.079, 589.722 271.638 C 586.392 275.198, 581.793 279.209, 579.504 280.551 C 577.214 281.893, 572.676 283.959, 569.420 285.143 C 564.841 286.807, 561.234 287.294, 553.500 287.294 C 545.766 287.294, 542.159 286.807, 537.581 285.143 C 534.325 283.959, 529.461 281.579, 526.772 279.854 C 524.007 278.079, 521.532 277.104, 521.074 277.608 C 520.629 278.099, 494.504 323.275, 463.019 378 C 431.534 432.725, 404.552 479.057, 403.058 480.961 C 401.565 482.865, 398.395 485.452, 396.014 486.711 C 393.502 488.039, 389.968 488.991, 387.593 488.978 C 385.342 488.966, 381.696 488.137, 379.491 487.135 C 377.287 486.133, 374.137 483.774, 372.491 481.891 C 370.846 480.009, 359.412 460.926, 347.083 439.484 C 334.753 418.043, 324.549 400.346, 324.406 400.157 C 324.264 399.968, 306.575 409.643, 285.098 421.657 C 263.621 433.671, 246.038 443.898, 246.024 444.385 C 246.011 444.872, 274.194 494.147, 308.654 553.885 C 343.114 613.623, 372.251 663.570, 373.404 664.879 C 374.557 666.187, 376.948 667.875, 378.718 668.629 C 380.488 669.383, 384.088 669.990, 386.718 669.978 C 389.348 669.966, 393.300 669.137, 395.500 668.137 C 397.700 667.136, 400.003 665.683, 400.618 664.908 C 401.233 664.134, 459.900 562.700, 530.988 439.500 C 602.076 316.300, 661.122 214.037, 662.201 212.250 C 663.280 210.463, 664.014 209.020, 663.832 209.044 C 663.649 209.068, 650.014 216.702, 633.531 226.008 M 291.816 258.749 C 302.440 258.911, 319.540 258.911, 329.816 258.748 C 340.092 258.586, 331.400 258.453, 310.500 258.454 C 289.600 258.454, 281.192 258.587, 291.816 258.749" stroke="none" fill="#34a7da" fill-rule="evenodd"/></svg>